<?xml version="1.0" encoding="UTF-8"?>
<svg width="1139px" height="577px" viewBox="0 0 1139 577" version="1.1" xmlns="http://www.w3.org/2000/svg" xmlns:xlink="http://www.w3.org/1999/xlink">
    <!-- Generator: Sketch 50.2 (55047) - http://www.bohemiancoding.com/sketch -->
    <title>Shape</title>
    <desc>Created with Sketch.</desc>
    <defs></defs>
    <g id="About" stroke="none" stroke-width="1" fill="none" fill-rule="evenodd">
        <g id="About-Desktop" transform="translate(-301.000000, 0.000000)" fill="#F5F7F9" fill-rule="nonzero">
            <path d="M777.160055,23.9555282 L796.693905,102.298622 C794.036238,102.032812 791.325418,102.121415 788.59688,102.812521 C775.751492,106.019963 767.929094,118.938333 771.109435,131.697218 C774.280917,144.438381 787.268047,152.164595 800.095718,148.974874 C812.941106,145.785152 820.763505,132.849061 817.583164,120.090177 L798.412529,43.182458 L852.628927,29.6438641 L860.663939,61.8334659 C858.02399,61.5676558 855.304311,61.6739799 852.575773,62.3650861 C839.730385,65.5548072 831.907986,78.4908982 835.079469,91.2232015 C838.268668,103.982086 851.238081,111.708299 864.074611,108.500857 C876.919999,105.311136 884.742398,92.3750452 881.562057,79.6338816 L862.382563,2.70844173 L777.160055,23.9555282 Z M1186.75077,158.774405 L1144.70648,174.076206 C1140.06442,175.75967 1137.83198,181.341682 1139.71007,186.507258 L1166.99544,261.465703 L1189.58561,232.013945 L1225.83618,240.03255 L1198.55081,165.074105 C1196.69044,159.917389 1191.37511,157.099802 1186.75077,158.783266 L1186.75077,158.774405 Z M427.836363,197.068779 L315.682835,206.877171 C306.823946,207.656881 300.268369,215.453977 301.065669,224.305453 L310.863599,336.477311 C311.634323,345.337647 319.430145,351.876575 328.280174,351.096865 L440.433703,341.288473 C449.292591,340.517624 455.830451,332.720528 455.050869,323.860192 L445.244079,211.688334 C444.464497,202.827998 436.668675,196.289069 427.809787,197.068779 L427.836363,197.068779 Z M324.851784,229.426727 L366.045616,225.829431 L369.660043,267.029995 L328.466211,270.645012 L324.851784,229.444448 L324.851784,229.426727 Z M372.7075,331.657288 C361.341546,332.649645 351.304426,324.214605 350.31223,312.855654 C349.320035,301.478982 357.735979,291.440221 369.110791,290.439003 C380.485604,289.464366 390.522725,297.881686 391.523779,309.249497 C392.498257,320.626169 384.082313,330.66493 372.716359,331.666148 L372.7075,331.657288 Z M391.842699,283.279851 L412.696523,239.926226 L440.761482,279.000309 L391.83384,283.270991 L391.842699,283.279851 Z M1117.0136,-92.4870116 L1176.19097,-51.056079 L1097.40002,61.4879128 C1089.27642,55.7995769 1087.27431,44.6532738 1092.88198,36.5017644 L1092.84655,36.4751834 C1087.08827,44.5026481 1075.92607,46.4430618 1067.82019,40.7547258 C1059.80289,35.146133 1057.79193,24.239059 1063.0984,16.1229909 L1063.00981,16.0343875 C1057.18066,23.8314835 1046.23108,25.6478524 1038.2315,20.0392595 L1117.00474,-92.4870116 L1117.0136,-92.4870116 Z M1192.60649,-110.119081 L1166.91571,-128.123284 C1157.67589,-134.59133 1144.92795,-132.340804 1138.45211,-123.108334 L1125.29666,-104.342142 L1184.47403,-62.8934883 L1197.62062,-81.6774013 C1204.08761,-90.9098717 1201.83745,-103.651035 1192.60649,-110.119081 L1192.60649,-110.136802 L1192.60649,-110.119081 Z M1037.69111,46.0000449 L1043.00644,76.1960711 L1073.21525,70.8798693 C1070.26524,54.195856 1054.36354,43.0584133 1037.69111,46.0089053 L1037.69111,46.0000449 Z M1452.37568,285.255706 C1453.67794,277.848465 1460.75619,272.886677 1468.16222,274.198007 C1475.57711,275.500476 1480.52923,282.579885 1479.23583,289.995986 C1477.907,297.412088 1470.84646,302.365016 1463.43157,301.071407 C1456.02554,299.742356 1451.07342,292.671808 1452.37568,285.264567 L1452.37568,285.255706 Z M1538.46636,268.128676 L1519.53491,375.577975 C1517.78971,385.47497 1508.37271,392.075921 1498.46848,390.330435 L1355.22025,365.060755 C1345.33373,363.315269 1338.74272,353.896732 1340.47906,343.990876 L1359.43708,236.541577 C1361.17342,226.653442 1370.59928,220.061352 1380.49466,221.797978 L1523.74289,247.049936 C1533.6294,248.795422 1540.22042,258.21396 1538.48408,268.110956 L1538.46636,268.128676 Z M1520.5714,264.974397 L1377.32318,239.722438 L1365.57629,306.369888 L1408.40016,272.895537 L1450.83423,340.854317 L1467.96732,326.792963 C1476.58702,319.704694 1489.49442,321.9818 1495.16411,331.577545 L1505.68847,349.386821 L1520.5714,264.983257 L1520.5714,264.974397 Z M474.141774,423.583277 L472.547174,441.454575 L454.56363,439.886296 L456.113936,421.988416 L348.168379,412.552158 L346.600356,430.450037 L328.599094,428.872898 L330.175976,410.975018 C320.236304,410.106705 311.483722,417.398762 310.615551,427.278037 L301.21627,534.621011 C300.356958,544.500286 307.709835,553.209997 317.649508,554.08717 L319.217531,536.207012 L337.201075,537.775291 L335.641911,555.65545 L443.631762,565.109429 L445.182067,547.211549 L463.183329,548.788689 L461.624164,566.686569 C471.563837,567.546021 480.316419,560.253964 481.18459,550.365829 L490.575012,443.049436 C491.434324,433.170161 484.081447,424.46045 474.141774,423.592137 L474.141774,423.583277 Z M340.974962,521.93301 L321.795468,520.249546 L324.24938,492.224302 L343.420015,493.890045 L340.966103,521.924149 L340.974962,521.93301 Z M344.846296,477.67563 L325.666802,475.992166 L328.120714,447.966922 L347.300208,449.650386 L344.846296,477.67563 Z M374.452701,512.966349 L379.103618,459.857494 L418.082727,490.026939 L374.452701,512.97521 L374.452701,512.966349 Z M464.875376,532.778061 L445.704742,531.094598 L448.149795,503.069354 L467.329288,504.752818 L464.884235,532.769201 L464.875376,532.778061 Z M468.746711,488.511821 L449.584935,486.828357 L452.038847,458.803114 L471.209482,460.486578 L468.755569,488.511821 L468.746711,488.511821 Z M1517.98461,453.593236 C1515.98036,451.486706 1513.75922,449.597833 1511.35816,447.958062 L1512.39465,435.163736 L1492.41786,429.369076 L1486.57099,440.825491 C1480.84815,441.020419 1475.1696,442.393771 1469.91628,444.989849 L1459.46279,437.671212 L1444.51785,452.290766 L1451.37462,463.100377 C1448.67233,468.283263 1447.07362,473.970159 1446.67941,479.802111 L1435.16286,485.295519 L1440.18585,505.709734 L1452.85406,505.107231 C1454.37927,507.585059 1456.16085,509.895552 1458.16939,512.000573 C1460.17975,514.104886 1462.40684,515.990799 1464.81356,517.626886 L1463.76821,530.412352 L1483.745,536.207012 L1489.59187,524.759457 C1495.30585,524.546809 1500.9844,523.182317 1506.24658,520.595099 L1516.70007,527.896016 L1531.63615,513.276461 L1524.78823,502.466851 C1527.53449,497.239253 1529.08479,491.550917 1529.48344,485.765117 L1541,480.253988 L1535.96815,459.848633 L1523.29994,460.451136 C1521.76729,457.9683 1519.97994,455.652087 1517.96689,453.540074 L1517.98461,453.593236 Z M1503.32315,498.160728 C1494.61486,506.365399 1480.7507,506.13503 1472.34361,497.629107 C1463.92767,489.140905 1464.17572,475.611172 1472.87515,467.415361 C1481.59229,459.210689 1495.46531,459.441058 1503.86354,467.946981 C1512.27948,476.435183 1512.03143,489.956056 1503.33201,498.160728 L1503.32315,498.160728 Z M1435.13628,511.362629 C1433.36275,510.479961 1431.49691,509.796501 1429.5729,509.324751 L1427.14556,500.482136 L1413.05993,501.811186 L1412.11203,510.999355 C1408.44175,512.664941 1405.17042,515.096938 1402.51785,518.131926 L1394.11963,515.943422 L1388.13988,529.623782 L1395.10297,535.081749 C1394.63416,539.250985 1394.98934,543.471729 1396.14831,547.50394 L1390.15971,554.193494 L1398.27445,566.562524 L1406.17658,562.867764 C1407.73736,564.125954 1409.43054,565.210358 1411.22614,566.101786 C1412.99792,566.98782 1414.85829,567.670066 1416.78952,568.139664 L1419.21686,577 L1433.30249,575.67095 L1434.25039,566.482781 C1437.91126,564.814189 1441.17331,562.382356 1443.81799,559.35021 L1452.21622,561.538713 L1458.19597,547.858354 L1451.23288,542.391526 C1451.71126,538.182867 1451.32147,533.974207 1450.19639,529.987056 L1456.185,523.297502 L1448.07026,510.937332 L1440.16813,514.632093 C1438.60584,513.375991 1436.9129,512.291738 1435.11856,511.39807 L1435.13628,511.362629 Z M1436.32337,545.209113 C1432.93928,552.864444 1424.31958,556.169349 1417.05529,552.598634 C1409.791,549.027918 1406.65496,539.928353 1410.03905,532.273022 C1413.42315,524.608831 1422.0517,521.303926 1429.30713,524.874641 C1436.57142,528.445357 1439.70747,537.544922 1436.32337,545.200253 L1436.32337,545.209113 Z M1399.38181,474.211238 C1398.49394,473.893756 1397.57244,473.679695 1396.63555,473.573294 L1395.02324,469.408936 L1388.44108,470.959495 L1388.48538,475.495987 C1386.83383,476.554271 1385.4241,477.949136 1384.34827,479.589463 L1380.27319,479.057842 L1378.18249,486.092949 L1381.76148,488.308034 C1381.76148,490.363632 1382.16013,492.383788 1382.91313,494.297621 L1380.45922,497.930359 L1384.97726,503.423767 L1388.50309,501.12008 C1389.30973,501.634214 1390.17147,502.056241 1391.07217,502.378248 C1391.95806,502.70608 1392.88824,502.909868 1393.80071,503.025052 L1395.42189,507.162829 L1402.00404,505.629991 L1401.94203,501.093499 C1403.59711,500.036615 1405.01001,498.641603 1406.08799,497.000023 L1410.18079,497.531644 L1412.25377,490.487676 L1408.67478,488.272592 C1408.67076,486.222588 1408.27381,484.192366 1407.50541,482.291865 L1409.96818,478.659127 L1405.46786,473.147998 L1401.92431,475.451686 C1401.12204,474.945639 1400.26642,474.529641 1399.37295,474.211238 L1399.38181,474.211238 Z M1401.93317,490.629442 C1400.72836,494.598872 1396.75072,496.769655 1393.0477,495.476046 C1389.32697,494.191297 1387.30714,489.938335 1388.51195,485.968905 C1389.71676,481.999474 1393.6944,479.828692 1397.40628,481.122301 C1401.10043,482.40705 1403.12912,486.668871 1401.92431,490.629442 L1401.93317,490.629442 Z M586.206713,323.833611 L564.387271,326.137298 C561.382274,326.462662 559.20482,329.155226 559.514882,332.162327 L564.086069,375.799483 C564.411379,378.804972 567.103504,380.982781 570.110113,380.672668 L591.929555,378.386701 C594.934553,378.061338 597.112007,375.368773 596.801944,372.361673 L592.230758,328.706796 C591.905447,325.701307 589.213322,323.523497 586.206713,323.833611 Z M583.797096,376.791841 L577.737616,377.429785 L577.489567,375.002053 L583.549047,374.364109 L583.797096,376.791841 Z M591.646071,369.836477 L569.826629,372.140164 L565.893282,334.545757 L587.703866,332.24207 L591.65493,369.836477 L591.646071,369.836477 Z M1246.37109,9.66380573 L1268.51831,123.696334 C1271.24684,137.695665 1284.79209,146.821812 1298.78913,144.110549 L1412.80302,121.959708 L1425.11688,185.311113 L1483.21347,123.997585 C1494.67508,111.892405 1499.5906,94.9987163 1496.41321,78.6326636 L1474.40774,-34.6644568 C1471.68806,-48.6637882 1458.15167,-57.7899346 1444.14577,-55.0786717 L1266.79082,-20.6119634 C1252.79378,-17.8829799 1243.65141,-4.33552564 1246.37994,9.66380573 L1246.37109,9.66380573 Z M975.767477,28.270512 C965.429154,26.0820089 954.975666,34.0297306 952.424306,46.0266259 L943.184485,89.4865755 C941.660756,96.690029 945.443502,103.592231 951.644724,104.903561 C957.845946,106.232611 964.082603,101.44803 965.615191,94.2534365 L974.828435,50.8023472 L967.386969,49.2074867 L958.156007,92.6674363 C957.642191,95.0597271 955.551493,96.6545876 953.487372,96.2115708 C951.423251,95.768554 950.165289,93.4648666 950.679105,91.0725757 L959.910067,47.6214865 C961.442654,40.4268934 967.705889,35.6600325 973.90711,36.9890829 C980.108332,38.3004127 983.899937,45.2026147 982.367349,52.4060681 L973.021222,96.3976379 C970.469862,108.403394 960.140398,115.801774 949.810934,113.604411 C939.463752,111.407048 933.156223,99.8974707 935.698724,87.891715 L940.305346,66.1661704 L932.828444,64.5713098 L928.221822,86.3057148 C924.642831,103.104912 933.475143,119.213004 947.950567,122.296401 C962.425991,125.370938 977.007721,114.233495 980.586712,97.4431576 L989.799956,53.983208 C992.369034,41.9863126 986.079223,30.4855961 975.749759,28.2882327 L975.767477,28.270512 Z M446.714655,-54.3698448 C494.065414,-48.5574642 527.88865,-5.26586095 522.068361,42.101497 C516.25693,89.4688549 472.9724,123.297619 425.595065,117.476378 C378.244306,111.663997 344.429928,68.3635338 350.241359,20.9873155 C356.05279,-26.371182 399.346178,-60.1910857 446.714655,-54.3698448 Z M449.868419,-75.5106072 C390.398701,-82.8203847 336.270892,-40.5122788 328.971168,18.9582985 C321.671443,78.4377362 363.963777,132.565531 423.424637,139.866448 C482.894356,147.176225 537.022164,104.868119 544.321889,45.3975421 C551.621613,-14.0818956 509.329279,-68.2096901 449.868419,-75.5106072 Z M492.089882,27.9958416 L448.796494,22.6796398 L454.111827,-20.6208238 L432.460703,-23.2789247 L427.14537,20.0126785 L383.851982,14.6964768 L381.194315,36.3511387 L424.478845,41.6673405 L419.163512,84.967804 L440.805776,87.6259049 L446.121109,44.3254414 L489.405639,49.6416432 L492.063305,27.9869812 L492.089882,27.9958416 Z M551.222963,231.624091 L574.397815,254.78501 C571.328704,257.864993 567.158101,259.593461 562.810389,259.587312 C553.774323,259.587312 546.421445,252.250954 546.421445,243.19569 C546.421445,238.676918 548.264094,234.583443 551.231822,231.61523 L551.222963,231.624091 Z M622.714193,275.837169 L616.991351,281.560946 L525.452456,189.998231 L531.175298,184.283314 L540.096199,185.550342 C546.208832,186.436375 553.783181,184.575705 556.928087,181.421425 L588.377141,149.967231 C607.335163,131.006111 638.075506,131.006111 657.033527,149.967231 C675.991549,168.928351 675.991549,199.673718 657.033527,218.617117 L625.566755,250.097892 C622.42185,253.243311 620.561483,260.818899 621.438513,266.932531 L622.705334,275.837169 L622.714193,275.837169 Z M687.171466,-163.387423 L661.923634,-158.487657 L658.247195,-177.422195 C657.627073,-180.576475 653.870904,-183.119392 650.71714,-182.499168 L600.248052,-172.690776 C597.094287,-172.070552 594.551786,-168.304909 595.171909,-165.15949 L598.848347,-146.224951 L573.627092,-141.316325 C569.835487,-140.580917 567.797943,-137.559542 568.533231,-133.785039 L574.663582,-102.242242 L700.814154,-126.758792 L694.701521,-158.30159 C693.957374,-162.093814 690.945352,-164.122831 687.171466,-163.387423 Z M649.317435,-156.033344 L611.463405,-148.679264 L609.018351,-161.287523 L646.872382,-168.641602 L649.326294,-156.024483 L649.317435,-156.033344 Z M654.039223,-98.0247218 L628.809108,-93.1160955 L626.346337,-105.733214 L575.886108,-95.9248221 L585.692898,-45.4474861 C586.428186,-41.6641225 589.440208,-39.6351055 593.222953,-40.3616531 L706.776186,-62.4238905 C710.56779,-63.1681587 712.596476,-66.1806731 711.870047,-69.9551764 L702.054399,-120.467954 L651.585311,-110.63298 L654.039223,-98.0247218 Z M995.168443,-144.302258 L962.35512,-82.5457142 L950.005829,-89.1023631 L982.819152,-150.858907 L995.168443,-144.284538 L995.168443,-144.302258 Z M961.39836,-170.085837 L958.120571,-163.901322 C952.752085,-153.81826 952.920404,-142.335264 957.376425,-132.712938 L973.74765,-163.529188 C977.379795,-170.351647 985.86661,-172.956586 992.670236,-169.341569 L1005.01067,-162.78492 C1011.83201,-159.152182 1014.40109,-150.646259 1010.76895,-143.8238 L994.406579,-113.034131 C1004.86007,-114.717595 1014.47196,-121.008434 1019.83159,-131.091497 L1023.10938,-137.276012 C1030.39138,-150.956371 1025.23551,-167.906194 1011.59282,-175.16281 L999.252391,-181.719459 C985.609702,-188.984934 968.671507,-183.775057 961.39836,-170.112418 L961.39836,-170.085837 Z M933.608027,-58.2683928 L945.948458,-51.6940232 C959.591147,-44.4285474 976.529341,-49.6561459 983.802489,-63.3187845 L987.080278,-69.5210199 C992.448764,-79.5952223 992.280445,-91.0782181 987.824424,-100.691683 L971.444339,-69.8754333 C967.812195,-63.0529744 959.32538,-60.4480355 952.521754,-64.071913 L940.181322,-70.6285619 C933.359978,-74.2612998 930.7909,-82.749502 934.423044,-89.5896816 L950.79427,-120.37935 C940.340782,-118.695886 930.728888,-112.422768 925.36926,-102.330845 L922.073754,-96.1463305 C914.809465,-82.4659712 919.947621,-65.5161479 933.590309,-58.2595324 L933.608027,-58.2683928 Z" id="Shape"></path>
        </g>
    </g>
</svg>