<svg viewBox="0 0 26 25" fill="none" xmlns="http://www.w3.org/2000/svg"><path d="M25.0735 9.52212L25.0392 9.43329L21.6387 0.562642C21.5706 0.388037 21.4482 0.239957 21.2896 0.140304C21.131 0.0388732 20.9444 -0.00968686 20.7566 0.00160322C20.5686 0.0107278 20.3883 0.07934 20.2418 0.197543C20.0953 0.315745 19.9902 0.477428 19.9415 0.659266L17.6506 7.68005H8.36229L6.06203 0.659266C6.01287 0.478519 5.90754 0.318071 5.76125 0.201084C5.61399 0.0844238 5.43414 0.0163687 5.24654 0.00631878C5.05894 -0.00373115 4.87286 0.0447199 4.71398 0.14498C4.55573 0.245131 4.43346 0.39305 4.36489 0.567318L0.965925 9.43329L0.931639 9.52212C0.442248 10.801 0.381908 12.2043 0.759715 13.5204C1.13752 14.8366 1.93299 15.9942 3.02618 16.8187L3.03709 16.8265L3.06826 16.8499L8.24696 20.7273L10.809 22.666L12.3675 23.8442C12.5502 23.9829 12.7732 24.0579 13.0025 24.0579C13.2319 24.0579 13.4549 23.9829 13.6376 23.8442L15.1961 22.666L17.7581 20.7273L22.9664 16.8312L22.9805 16.8219C24.0739 15.9967 24.8693 14.8385 25.2468 13.5218C25.6244 12.205 25.5635 10.8012 25.0735 9.52212Z" fill="#E24329"/><path d="M25.0736 9.52212L25.0394 9.43329C23.3829 9.77336 21.822 10.4753 20.4684 11.4889L13.002 17.1335L17.7583 20.7273L22.9666 16.8312L22.9807 16.8219C24.074 15.9967 24.8695 14.8385 25.247 13.5217C25.6245 12.205 25.5637 10.8012 25.0736 9.52212Z" fill="#FC6D26"/><path d="M8.24707 20.7273L10.8091 22.666L12.3676 23.8442C12.5503 23.9829 12.7733 24.0579 13.0027 24.0579C13.232 24.0579 13.455 23.9829 13.6377 23.8442L15.1962 22.666L17.7582 20.7273L13.0019 17.1335L8.24707 20.7273Z" fill="#FCA326"/><path d="M5.53527 11.4889C4.18241 10.4751 2.62201 9.77308 0.965925 9.43329L0.931639 9.52212C0.442248 10.801 0.381908 12.2043 0.759715 13.5204C1.13752 14.8366 1.93299 15.9942 3.02619 16.8187L3.03709 16.8265L3.06826 16.8499L8.24696 20.7273L13.0018 17.1335L5.53527 11.4889Z" fill="#FC6D26"/></svg>