<svg width="110" height="28" viewBox="0 0 110 28" fill="none" xmlns="http://www.w3.org/2000/svg">
<path d="M37.693 22.2361V5.46605H41.238V12.3861H48.436V5.46605H51.973V22.2361H48.436V15.3091H41.238V22.2361H37.693ZM60.333 22.4821C59.044 22.4821 57.933 22.2201 57 21.6961C56.0763 21.1769 55.3269 20.3962 54.846 19.4521C54.344 18.4811 54.093 17.3321 54.093 16.0051C54.093 14.7111 54.343 13.5751 54.846 12.5981C55.3212 11.6504 56.057 10.858 56.967 10.3141C57.884 9.76805 58.959 9.49505 60.193 9.49505C61.301 9.49505 62.3 9.73005 63.19 10.1991C64.085 10.6691 64.795 11.3791 65.32 12.3291C65.843 13.2731 66.105 14.4571 66.105 15.8821V16.8401H57.54V16.8481C57.54 17.7881 57.797 18.5271 58.31 19.0681C58.823 19.6081 59.516 19.8781 60.39 19.8781C60.974 19.8781 61.479 19.7551 61.905 19.5101C62.33 19.2641 62.631 18.9001 62.805 18.4201L66.032 18.6331C65.786 19.8021 65.164 20.7351 64.165 21.4331C63.165 22.1331 61.889 22.4821 60.333 22.4821ZM57.54 14.6781H62.822C62.816 13.9301 62.576 13.3141 62.102 12.8281C61.626 12.3421 61.009 12.0981 60.251 12.0981C59.475 12.0981 58.839 12.3501 58.343 12.8521C57.8536 13.3369 57.5666 13.9896 57.54 14.6781ZM68.151 22.2361V9.65905H71.64V22.2361H68.151ZM69.903 8.03705C69.39 8.03705 68.948 7.86505 68.577 7.52205C68.206 7.17205 68.02 6.75505 68.02 6.26905C68.02 5.78305 68.206 5.36805 68.577 5.02405C68.9346 4.68543 69.4106 4.50022 69.903 4.50805C70.423 4.50805 70.867 4.68005 71.238 5.02405C71.609 5.36805 71.795 5.78305 71.795 6.26905C71.795 6.75505 71.609 7.17205 71.238 7.52205C70.8774 7.86158 70.3982 8.04644 69.903 8.03705ZM79.87 27.1331C78.177 27.1331 76.848 26.8001 75.882 26.1341C74.916 25.4681 74.329 24.6601 74.122 23.7101L77.348 23.2761C77.49 23.6151 77.765 23.9231 78.175 24.2021C78.59 24.4851 79.182 24.6271 79.951 24.6271C80.711 24.6271 81.335 24.4471 81.827 24.0871C82.323 23.7271 82.572 23.1341 82.572 22.3101V20.0091H82.424C82.195 20.5281 81.791 20.9991 81.213 21.4261C80.633 21.8461 79.843 22.0561 78.838 22.0561C77.894 22.0561 77.034 21.8361 76.258 21.3931C75.488 20.9511 74.875 20.2771 74.416 19.3701C73.963 18.4641 73.736 17.3151 73.736 15.9231C73.736 14.4931 73.969 13.3031 74.433 12.3531C74.902 11.4031 75.521 10.6911 76.291 10.2161C77.0517 9.73952 77.9324 9.48944 78.83 9.49505C79.534 9.49505 80.124 9.61505 80.598 9.85505C81.073 10.0901 81.458 10.3821 81.753 10.7321C82.048 11.0811 82.272 11.4281 82.424 11.7721H82.555V9.65805H86.019V22.3581C86.019 23.4011 85.754 24.2771 85.225 24.9871C84.701 25.6971 83.978 26.2311 83.055 26.5921C82.132 26.9521 81.071 27.1331 79.87 27.1331ZM79.943 19.4361C80.784 19.4361 81.433 19.1251 81.893 18.5021C82.356 17.8801 82.588 17.0151 82.588 15.9071C82.588 14.8041 82.359 13.9221 81.9 13.2621C81.442 12.6021 80.79 12.2711 79.943 12.2711C79.081 12.2711 78.423 12.6091 77.97 13.2861C77.522 13.9631 77.299 14.8361 77.299 15.9061C77.299 16.9931 77.525 17.8531 77.979 18.4861C78.431 19.1191 79.086 19.4361 79.943 19.4361ZM92.053 14.9651V22.2361H88.564V5.46605H91.954V11.8781H92.102C92.392 11.1351 92.85 10.5541 93.478 10.1341C94.111 9.70805 94.905 9.49505 95.861 9.49505C97.171 9.49505 98.224 9.91505 99.021 10.7561C99.818 11.5961 100.214 12.7541 100.209 14.2281V22.2361H96.72V14.8511C96.726 14.0761 96.53 13.4731 96.13 13.0411C95.738 12.6111 95.186 12.3951 94.477 12.3951C93.767 12.3951 93.186 12.6211 92.732 13.0751C92.285 13.5221 92.059 14.1521 92.053 14.9651ZM109.413 9.65905V12.2791H107.047V18.3711C107.047 18.8511 107.156 19.1761 107.374 19.3461C107.593 19.5151 107.876 19.6001 108.226 19.6001C108.39 19.6001 108.553 19.5861 108.717 19.5591C108.881 19.5261 109.006 19.5011 109.094 19.4851L109.642 22.0811C109.468 22.1351 109.222 22.1981 108.905 22.2691C108.526 22.3536 108.139 22.4005 107.751 22.4091C106.484 22.4631 105.466 22.1891 104.697 21.5891C103.932 20.9841 103.553 20.0641 103.558 18.8291V12.2791H101.839V9.65905H103.558V6.64505H107.047V9.65905H109.413Z" fill="white" fill-opacity="0.9"/>
<path fill-rule="evenodd" clip-rule="evenodd" d="M3.72477 10.8376L11.0172 18.9599L8.97913 24.005C8.74641 24.581 8.55071 25.0654 8.43271 25.4471C8.32666 25.7901 8.1978 26.2901 8.37619 26.7643C8.58973 27.3319 9.07517 27.7535 9.66708 27.8854C10.1616 27.9956 10.6386 27.7979 10.9634 27.6449C11.3248 27.4745 11.777 27.2129 12.3147 26.9018L23.779 20.2692C23.9769 20.1547 24.1714 20.0422 24.3262 19.9336C24.4939 19.8159 24.6964 19.6489 24.84 19.3935L24.9987 18.9979C25.0589 18.762 25.0659 18.5141 25.0172 18.2724C24.9612 17.9949 24.8278 17.7796 24.7086 17.6185C24.5941 17.4638 24.4436 17.2964 24.2933 17.1294L16.9454 8.96502L18.9523 3.98656C19.1836 3.41282 19.3782 2.93009 19.4955 2.54953C19.601 2.20713 19.7289 1.70849 19.5509 1.23526C19.3377 0.668334 18.8533 0.246969 18.2622 0.11445C17.7689 0.00383328 17.2928 0.199601 16.9684 0.351604C16.6077 0.520542 16.1567 0.780218 15.6205 1.08885L4.20914 7.65772C4.01079 7.77186 3.81589 7.88402 3.66069 7.99244C3.49266 8.10982 3.28972 8.27653 3.14545 8.53177C2.95315 8.872 2.88955 9.27003 2.96627 9.65325C3.02383 9.94073 3.16472 10.1624 3.2878 10.3263C3.4015 10.4777 3.55175 10.645 3.70466 10.8152L3.72477 10.8376ZM17.7108 1.93632C17.4255 2.06999 17.0391 2.29151 16.4583 2.62584L5.10829 9.15937C4.94849 9.25135 4.83896 9.31483 4.7587 9.36457C4.81947 9.43686 4.90376 9.5313 5.02694 9.6685L11.7473 17.1537L15.1181 8.81727L17.314 3.37004C17.5645 2.7485 17.7303 2.33515 17.8231 2.03406C17.8446 1.96441 17.859 1.90983 17.8687 1.86818C17.8288 1.88357 17.7768 1.9054 17.7108 1.93632ZM22.6383 17.9065L16.216 10.7705L13.3306 17.9065H22.6383ZM11.4736 25.3666L21.3434 19.6565H12.6232L10.617 24.6226C10.365 25.2465 10.1981 25.6616 10.1046 25.964C10.083 26.034 10.0685 26.0889 10.0586 26.1308C10.0987 26.1152 10.151 26.0931 10.2173 26.0619C10.5036 25.9269 10.8913 25.7035 11.4736 25.3666Z" fill="white" fill-opacity="0.9"/>
</svg>
