<svg viewBox="0 0 1025 190" fill="none" xmlns="http://www.w3.org/2000/svg"><path d="M83.992 187 .024.375992H41.496L100.376 137.848 107.544 156.536h1.792L116.504 138.104 175.384.375992h41.472L132.632 187H83.992zm198.572 2.304C266.18 189.304 251.929 186.488 239.812 180.856 227.865 175.224 218.564 167.203 211.908 156.792 205.423 146.381 202.18 133.923 202.18 119.416 202.18 104.739 205.508 92.1093 212.164 81.528 218.82 70.776 228.121 62.584 240.068 56.952c11.947-5.8027 25.941-8.704 41.984-8.704 16.896.0 31.232 3.1573 43.008 9.472 11.947 6.144 20.821 15.0187 26.624 26.624C357.657 95.9493 360.047 109.944 358.852 126.328H238.532C238.873 138.275 243.055 147.576 251.076 154.232S269.849 164.216 283.332 164.216c10.581.0 19.456-1.792 26.624-5.37600000000001 7.339-3.755 12.032-8.619 14.08-14.592H358.34C356.975 153.293 352.793 161.229 345.796 168.056 338.969 174.712 330.095 179.917 319.172 183.672S296.047 189.304 282.564 189.304zM281.796 73.592C269.508 73.592 259.524 76.4933 251.844 82.296 244.335 87.928 239.812 95.7787 238.276 105.848h84.736C322.329 95.7787 318.404 87.928 311.236 82.296 304.068 76.4933 294.255 73.592 281.796 73.592zM380.318 187V50.808H415.39L416.67 76.408h2.048c4.608-9.0453 11.776-15.9573 21.504-20.736C449.95 50.7227 460.275 48.248 471.198 48.248 482.974 48.248 493.299 50.296 502.174 54.392c8.875 3.9253 15.787 10.5813 20.736 19.968C528.03 83.576 530.59 96.2053 530.59 112.248V187H494.238V118.648C494.238 104.653 491.507 94.072 486.046 86.904 480.585 79.736 471.625 76.152 459.166 76.152c-12.8.0-23.125 4.0107-30.976 12.032C420.51 96.2053 416.67 106.531 416.67 119.16V187H380.318zm222.98.0C592.375 187 583.757 184.44 577.442 179.32 571.298 174.2 568.226 166.179 568.226 155.256v-76.8H541.602V50.808h26.624V14.456l35.84-6.91201V50.808H638.626V78.456H604.066v65.536C604.066 148.6 605.175 151.757 607.394 153.464 609.783 155 613.197 155.768 617.634 155.768h20.992V187H603.298zm54.27-155.392V.375992H693.92V31.608H657.568zm0 155.392V50.808H693.92V187H657.568zM715.436 187V162.68l85.76-84.224H719.532V50.808h130.56V74.36l-85.76 84.992h88.832V187H715.436zm228.134 2.56C927.527 189.56 913.447 186.744 901.33 181.112 889.213 175.48 879.741 167.373 872.914 156.792 866.258 146.211 862.93 133.581 862.93 118.904S866.258 91.6827 872.914 81.272C879.57 70.6907 888.957 62.584 901.074 56.952 913.191 51.1493 927.357 48.248 943.57 48.248 959.783 48.248 973.949 51.064 986.066 56.696 998.183 62.328 1007.57 70.4347 1014.23 81.016 1020.88 91.4267 1024.21 104.056 1024.21 118.904 1024.21 133.411 1020.88 145.955 1014.23 156.536 1007.57 167.117 998.183 175.309 986.066 181.112 974.119 186.744 959.954 189.56 943.57 189.56zm0-28.16C957.394 161.4 968.231 157.56 976.082 149.88s11.776-18.005 11.776-30.976C987.858 105.763 983.933 95.4373 976.082 87.928 968.402 80.248 957.565 76.408 943.57 76.408 929.746 76.408 918.909 80.248 911.058 87.928 903.378 95.608 899.538 105.933 899.538 118.904S903.378 142.2 911.058 149.88C918.909 157.56 929.746 161.4 943.57 161.4z" fill="#f2f2f2"></path></svg>