<svg width="964" height="162" viewBox="0 0 964 162" fill="none" xmlns="http://www.w3.org/2000/svg">
<path d="M39.304 0.959991L76.712 116.992L113.672 0.959991H152.424L94.632 160H58.568L0.328 0.959991H39.304ZM278.946 127.744V160H167.17V0.959991H276.93V33.216H203.906V64.128H266.626V93.92H203.906V127.744H278.946ZM337.999 69.056V160H301.263V0.959991H330.383L404.079 94.592V0.959991H440.815V160H410.799L337.999 69.056ZM592.416 33.216H544.032V160H507.296V33.216H458.688V0.959991H592.416V33.216ZM610.357 160V0.959991H647.093V160H610.357ZM668.553 132.448L749.641 33.216H671.689V0.959991H793.769V28.512L716.489 127.744H794.665V160H668.553V132.448ZM884.334 161.344C872.387 161.344 861.56 159.104 851.854 154.624C842.296 149.995 834.008 143.872 826.99 136.256C820.12 128.491 814.819 119.829 811.086 110.272C807.352 100.565 805.486 90.56 805.486 80.256C805.486 69.6533 807.427 59.5733 811.31 50.016C815.342 40.4587 820.867 31.9467 827.886 24.48C835.054 16.864 843.491 10.8907 853.198 6.55999C862.904 2.22932 873.507 0.0639896 885.006 0.0639896C896.803 0.0639896 907.48 2.37866 917.038 7.00799C926.744 11.488 935.032 17.6107 941.902 25.376C948.92 33.1413 954.296 41.8773 958.03 51.584C961.763 61.1413 963.63 70.9227 963.63 80.928C963.63 91.5307 961.688 101.611 957.806 111.168C953.923 120.725 948.398 129.312 941.23 136.928C934.062 144.395 925.624 150.368 915.918 154.848C906.36 159.179 895.832 161.344 884.334 161.344ZM842.894 80.704C842.894 86.8267 843.79 92.8 845.582 98.624C847.374 104.299 849.987 109.376 853.422 113.856C857.006 118.336 861.411 121.92 866.638 124.608C871.864 127.296 877.838 128.64 884.558 128.64C891.576 128.64 897.699 127.296 902.926 124.608C908.152 121.771 912.483 118.037 915.918 113.408C919.352 108.779 921.891 103.627 923.534 97.952C925.326 92.128 926.222 86.2293 926.222 80.256C926.222 74.1333 925.326 68.2347 923.534 62.56C921.742 56.8853 919.054 51.808 915.47 47.328C911.886 42.6987 907.48 39.1147 902.254 36.576C897.027 34.0373 891.128 32.768 884.558 32.768C877.539 32.768 871.416 34.112 866.19 36.8C861.112 39.488 856.782 43.1467 853.198 47.776C849.763 52.256 847.15 57.408 845.358 63.232C843.715 68.9067 842.894 74.7307 842.894 80.704Z" fill="#ffffff"/>
</svg>
