<?xml version="1.0" encoding="UTF-8"?>
<svg version="1.1" viewBox="0 0 24 24" xmlns="http://www.w3.org/2000/svg">
<desc></desc>
<g fill="none" fill-rule="evenodd">
<g transform="translate(-40 -38)" fill="#919BA5" fill-rule="nonzero">
<g transform="translate(40 38)">
<path d="m24 22.459l-6.095-6.095c3.1762-3.9474 2.9346-9.7542-0.72786-13.417-1.9011-1.9006-4.4276-2.9471-7.1154-2.9471-2.6872 0-5.2141 1.0466-7.1143 2.9468-1.9011 1.9008-2.9474 4.4274-2.9474 7.1149 0 2.6875 1.0466 5.2146 2.9474 7.1149 1.9006 1.9006 4.4271 2.9471 7.1143 2.9471 2.3209 0 4.5208-0.78207 6.3026-2.219l6.095 6.095 1.5407-1.5404zm-13.938-4.5145c-2.1054 0-4.0849-0.8202-5.5736-2.3092-1.4892-1.489-2.3092-3.4682-2.3092-5.5739 0-2.1057 0.81993-4.0849 2.3092-5.5739 1.4887-1.489 3.4682-2.3089 5.5736-2.3089 2.1057 0 4.0855 0.81993 5.5747 2.3089 3.073 3.0735 3.073 8.0745 0 11.148-1.4892 1.4892-3.469 2.3092-5.5747 2.3092z"/>
</g>
</g>
</g>
</svg>