<svg width="1721" height="820" viewBox="0 0 1721 820" fill="none" xmlns="http://www.w3.org/2000/svg">
<rect width="1721" height="820" fill="white"/>
<g clip-path="url(#clip0_1_14)">
<path fill-rule="evenodd" clip-rule="evenodd" d="M845.543 423.543V278.189C845.543 276.23 843.795 274.741 841.863 275.043L814.637 279.327C813.088 279.57 811.944 280.908 811.944 282.478L812.036 429.899C812.036 436.871 812.036 479.917 863.818 481.423C865.615 481.477 867.104 480.031 867.104 478.234V456.23C867.104 454.633 865.923 453.257 864.342 453.079C845.538 450.915 845.538 427.412 845.538 423.554L845.543 423.543Z" fill="#003DFF"/>
<path d="M1294.56 331.509H1267.16C1265.4 331.509 1263.98 332.934 1263.98 334.692V478.272C1263.98 480.03 1265.4 481.455 1267.16 481.455H1294.56C1296.32 481.455 1297.74 480.03 1297.74 478.272V334.692C1297.74 332.934 1296.32 331.509 1294.56 331.509Z" fill="#003DFF"/>
<path fill-rule="evenodd" clip-rule="evenodd" d="M1267.16 313.514H1294.56C1296.31 313.514 1297.74 312.09 1297.74 310.331V278.183C1297.74 276.23 1295.99 274.736 1294.06 275.038L1266.67 279.327C1265.12 279.57 1263.97 280.903 1263.97 282.473V310.326C1263.97 312.085 1265.4 313.509 1267.16 313.509L1267.16 313.514Z" fill="#003DFF"/>
<path fill-rule="evenodd" clip-rule="evenodd" d="M1219.81 423.543V278.189C1219.81 276.23 1218.07 274.741 1216.13 275.043L1188.91 279.327C1187.36 279.57 1186.22 280.908 1186.22 282.478L1186.31 429.899C1186.31 436.871 1186.31 479.917 1238.09 481.423C1239.89 481.477 1241.38 480.031 1241.38 478.234V456.23C1241.38 454.633 1240.19 453.257 1238.61 453.079C1219.81 450.915 1219.81 427.412 1219.81 423.554L1219.81 423.543Z" fill="#003DFF"/>
<path fill-rule="evenodd" clip-rule="evenodd" d="M1148.55 352.007C1142.54 345.397 1135.15 340.326 1126.54 336.732C1117.96 333.209 1108.6 331.417 1098.45 331.417C1088.32 331.417 1078.94 333.128 1070.44 336.732C1062.02 340.326 1054.63 345.392 1048.44 352.007C1042.25 358.606 1037.45 366.505 1034 375.764C1030.56 385.029 1029.02 395.928 1029.02 407.254C1029.02 418.579 1030.74 427.147 1034.17 436.504C1037.61 445.849 1042.34 453.829 1048.44 460.439C1054.53 467.038 1061.84 472.104 1070.35 475.795C1078.86 479.48 1092 481.369 1098.62 481.45C1105.23 481.45 1118.47 479.388 1127.06 475.795C1135.65 472.191 1142.95 467.038 1149.06 460.439C1155.15 453.829 1159.88 445.849 1163.22 436.504C1166.58 427.147 1168.21 418.579 1168.21 407.254C1168.21 395.928 1166.41 385.029 1162.8 375.764C1159.36 366.5 1154.63 358.606 1148.54 352.007H1148.55ZM1124.58 440.362C1118.39 448.86 1109.71 453.149 1098.63 453.149C1087.54 453.149 1078.86 448.941 1072.67 440.362C1066.49 431.863 1063.39 422.011 1063.39 407.34C1063.39 392.831 1066.4 380.826 1072.59 372.338C1078.77 363.84 1087.45 359.647 1098.53 359.647C1109.62 359.647 1118.29 363.845 1124.48 372.338C1130.67 380.739 1133.85 392.831 1133.85 407.34C1133.85 422.011 1130.76 431.782 1124.57 440.362H1124.58Z" fill="#003DFF"/>
<path fill-rule="evenodd" clip-rule="evenodd" d="M750.601 331.509H723.984C697.89 331.509 674.932 345.257 661.529 366.095C653.694 378.279 649.124 392.874 649.124 408.576C649.124 432.797 659.986 454.396 676.96 468.522C678.541 469.924 680.225 471.209 681.984 472.374C688.923 476.955 697.151 479.642 706.005 479.642C706.669 479.642 707.333 479.626 707.991 479.593C708.185 479.583 708.374 479.567 708.568 479.556C709.038 479.529 709.513 479.496 709.982 479.448C710.166 479.432 710.349 479.405 710.532 479.383C711.023 479.329 711.514 479.27 712.005 479.2C712.119 479.183 712.232 479.162 712.345 479.146C730.092 476.41 745.561 462.516 750.601 445.255V476.459C750.601 478.218 752.025 479.642 753.784 479.642H780.989C782.748 479.642 784.173 478.218 784.173 476.459V334.692C784.173 332.933 782.748 331.509 780.989 331.509H750.601V331.509ZM750.601 443.156C744.018 448.638 735.509 450.7 726.407 451.315C726.32 451.32 726.228 451.331 726.142 451.336C725.538 451.374 724.934 451.39 724.329 451.39C701.538 451.39 682.718 432.025 682.718 408.565C682.718 403.034 683.775 397.768 685.642 392.928C691.696 377.216 706.561 366.09 723.984 366.09H750.601V443.156V443.156Z" fill="#003DFF"/>
<path fill-rule="evenodd" clip-rule="evenodd" d="M1419.42 331.509H1392.81C1366.71 331.509 1343.75 345.257 1330.35 366.095C1322.52 378.279 1317.95 392.874 1317.95 408.576C1317.95 432.797 1328.81 454.396 1345.78 468.522C1347.36 469.924 1349.05 471.209 1350.81 472.374C1357.74 476.955 1365.97 479.642 1374.83 479.642C1375.49 479.642 1376.15 479.626 1376.81 479.593C1377.01 479.583 1377.2 479.567 1377.39 479.556C1377.86 479.529 1378.33 479.496 1378.8 479.448C1378.99 479.432 1379.17 479.405 1379.35 479.383C1379.85 479.329 1380.34 479.27 1380.83 479.2C1380.94 479.183 1381.05 479.162 1381.17 479.146C1398.91 476.41 1414.38 462.516 1419.42 445.255V476.459C1419.42 478.218 1420.85 479.642 1422.61 479.642H1449.81C1451.57 479.642 1452.99 478.218 1452.99 476.459V334.692C1452.99 332.933 1451.57 331.509 1449.81 331.509H1419.42V331.509ZM1419.42 443.156C1412.84 448.638 1404.33 450.7 1395.23 451.315C1395.14 451.32 1395.05 451.331 1394.96 451.336C1394.36 451.374 1393.76 451.39 1393.15 451.39C1370.36 451.39 1351.54 432.025 1351.54 408.565C1351.54 403.034 1352.6 397.768 1354.46 392.928C1360.52 377.216 1375.38 366.09 1392.81 366.09H1419.42V443.156V443.156Z" fill="#003DFF"/>
<path fill-rule="evenodd" clip-rule="evenodd" d="M977.02 331.509H950.403C924.309 331.509 901.351 345.257 887.948 366.095C881.586 375.991 877.372 387.484 876.018 399.867C875.705 402.727 875.543 405.629 875.543 408.576C875.543 411.522 875.711 414.592 876.045 417.527C878.354 438.079 888.531 456.165 903.38 468.527C904.96 469.93 906.644 471.214 908.403 472.379C915.342 476.96 923.57 479.647 932.425 479.647C942.131 479.647 951.099 476.448 958.41 471.031C967.2 464.782 973.993 455.631 977.014 445.266V472.385H976.955V478.363C976.955 490.147 973.874 499.013 967.599 504.996C961.335 510.975 950.851 513.969 936.169 513.969C930.169 513.969 920.635 513.651 911.025 512.669C909.498 512.513 908.079 513.478 907.642 514.946L900.746 538.207C900.196 540.074 901.432 541.995 903.353 542.27C914.964 543.932 926.295 544.795 932.84 544.795C959.23 544.795 978.79 538.995 991.594 527.415C1003.18 516.942 1009.48 501.036 1010.59 479.653V334.692C1010.59 332.933 1009.16 331.509 1007.4 331.509H977.014H977.02ZM977.02 366.095C977.02 366.095 977.371 441.165 977.02 443.448C970.502 448.719 962.392 450.781 953.554 451.379C953.468 451.385 953.376 451.396 953.29 451.401C952.685 451.439 952.081 451.455 951.477 451.455C950.764 451.455 950.058 451.439 949.351 451.401C927.547 450.263 909.142 431.297 909.142 408.57C909.142 403.04 910.2 397.773 912.067 392.933C918.121 377.221 932.986 366.095 950.408 366.095H977.025H977.02Z" fill="#003DFF"/>
<path d="M402.801 275C329.133 275 269.079 334.401 268.016 407.82C266.937 482.383 327.434 544.169 402.007 544.601C425.036 544.736 447.218 539.103 466.917 528.397C468.838 527.356 469.135 524.712 467.5 523.266L454.885 512.086C452.322 509.815 448.675 509.173 445.518 510.511C431.77 516.36 416.829 519.349 401.43 519.16C341.171 518.421 292.486 468.284 293.446 408.031C294.396 348.538 343.087 300.435 402.801 300.435H512.166V494.826L450.115 439.692C448.108 437.906 445.033 438.257 443.414 440.399C433.453 453.586 417.229 461.788 399.207 460.547C374.209 458.82 353.953 438.694 352.081 413.707C349.842 383.901 373.464 358.93 402.801 358.93C429.337 358.93 451.189 379.353 453.471 405.306C453.676 407.615 454.718 409.768 456.45 411.306L472.61 425.631C474.444 427.255 477.353 426.263 477.806 423.851C478.971 417.619 479.382 411.128 478.923 404.469C476.322 366.516 445.578 335.982 407.608 333.646C364.076 330.964 327.682 365.016 326.527 407.701C325.4 449.302 359.484 485.162 401.09 486.079C418.459 486.462 434.56 481.002 447.569 471.538L528.644 543.408C532.119 546.489 537.606 544.023 537.606 539.378V280.115C537.601 277.293 535.313 275 532.486 275H402.801Z" fill="#003DFF"/>
</g>
<defs>
<clipPath id="clip0_1_14">
<rect width="1185" height="269.784" fill="white" transform="translate(268 275)"/>
</clipPath>
</defs>
</svg>
