<svg width="1721" height="820" viewBox="0 0 1721 820" fill="none" xmlns="http://www.w3.org/2000/svg">
<rect width="1721" height="820" fill="white"/>
<path fill-rule="evenodd" clip-rule="evenodd" d="M697.043 353.06L698.039 370.853C709.396 357.091 724.308 350.21 742.765 350.21C774.749 350.21 791.029 368.57 791.595 405.29V507.031H757.11V407.282C757.11 397.511 755.005 390.282 750.795 385.579C746.586 380.883 739.697 378.536 730.136 378.536C716.22 378.536 705.85 384.85 699.05 397.462V507.031H664.549V353.06H697.059H697.043ZM894.389 509.881C872.531 509.881 854.803 502.984 841.227 489.181C827.643 475.379 820.851 456.995 820.851 434.037V429.77C820.851 414.406 823.806 400.668 829.724 388.574C835.633 376.48 843.947 367.065 854.641 360.321C865.335 353.594 877.259 350.227 890.422 350.227C911.332 350.227 927.498 356.913 938.896 370.287C950.311 383.668 956.01 402.587 956.01 427.067V441.015H855.629C856.681 453.724 860.907 463.779 868.338 471.178C875.77 478.577 885.12 482.276 896.38 482.276C912.182 482.276 925.053 475.881 934.994 463.066L953.589 480.859C947.437 490.056 939.228 497.196 928.963 502.271C918.69 507.347 907.171 509.881 894.397 509.881H894.389ZM890.276 377.977C880.805 377.977 873.171 381.296 867.35 387.934C861.522 394.572 857.814 403.825 856.203 415.685H921.937V413.119C921.176 401.542 918.1 392.799 912.708 386.866C907.309 380.94 899.837 377.977 890.276 377.977V377.977ZM1025.99 315.644V353.068H1053.11V378.681H1025.99V464.629C1025.99 470.506 1027.16 474.748 1029.47 477.362C1031.79 479.969 1035.93 481.272 1041.9 481.272C1045.96 481.261 1050.01 480.783 1053.96 479.848V506.602C1046.11 508.788 1038.54 509.873 1031.25 509.873C1004.75 509.873 991.499 495.22 991.499 465.908V378.673H966.21V353.06H991.483V315.636H1025.98L1025.99 315.644ZM1116.15 507.04H1081.65V288.468H1116.15V507.04ZM1190.4 507.04H1155.9V353.068H1190.4V507.04ZM1153.77 313.078C1153.77 307.775 1155.44 303.363 1158.8 299.85C1162.17 296.345 1166.97 294.588 1173.21 294.588C1179.46 294.588 1184.29 296.345 1187.7 299.85C1191.1 303.363 1192.8 307.775 1192.8 313.086C1192.8 318.299 1191.1 322.638 1187.7 326.103C1184.29 329.568 1179.46 331.3 1173.21 331.3C1166.97 331.3 1162.17 329.568 1158.8 326.103C1155.44 322.646 1153.77 318.299 1153.77 313.086V313.078ZM1240.09 507.04V378.673H1216.66V353.06H1240.09V338.974C1240.09 321.893 1244.82 308.714 1254.28 299.413C1263.75 290.12 1276.99 285.473 1294.03 285.473C1300.09 285.473 1306.53 286.323 1313.34 288.031L1312.49 315.069C1308.14 314.261 1303.72 313.881 1299.29 313.936C1282.81 313.936 1274.58 322.42 1274.58 339.403V353.06H1305.81V378.673H1274.58V507.031H1240.09V507.04ZM1384.75 457.521L1415.98 353.068H1452.75L1391.71 530.378C1382.34 556.275 1366.44 569.227 1344.01 569.227C1338.99 569.227 1333.45 568.369 1327.39 566.661V539.906L1333.93 540.335C1342.63 540.335 1349.19 538.749 1353.59 535.567C1357.99 532.394 1361.47 527.059 1364.03 519.563L1368.99 506.327L1315.04 353.068H1352.24L1384.75 457.521Z" fill="#0E1E25"/>
<path d="M490.752 362.426L490.639 362.378C490.574 362.353 490.509 362.329 490.452 362.272C490.36 362.173 490.291 362.053 490.252 361.922C490.212 361.792 490.203 361.654 490.226 361.519L496.483 323.261L525.829 352.615L495.31 365.599C495.225 365.634 495.134 365.65 495.042 365.648H494.921C494.881 365.624 494.84 365.591 494.759 365.51C493.623 364.246 492.265 363.2 490.752 362.426V362.426ZM533.317 360.095L564.694 391.472C571.211 397.997 574.473 401.251 575.663 405.023C575.841 405.582 575.987 406.14 576.1 406.715L501.114 374.958C501.074 374.941 501.033 374.925 500.992 374.909C500.693 374.788 500.345 374.65 500.345 374.342C500.345 374.035 500.701 373.889 501.001 373.768L501.098 373.727L533.317 360.095ZM574.821 416.786C573.202 419.829 570.045 422.987 564.702 428.338L529.326 463.706L483.571 454.178L483.329 454.129C482.924 454.064 482.495 453.991 482.495 453.627C482.321 451.74 481.761 449.908 480.848 448.247C479.936 446.585 478.692 445.129 477.192 443.969C477.006 443.783 477.055 443.492 477.111 443.225C477.111 443.184 477.111 443.144 477.128 443.111L485.733 390.282L485.765 390.104C485.814 389.699 485.887 389.229 486.251 389.229C488.095 389 489.875 388.406 491.487 387.482C493.1 386.557 494.512 385.322 495.641 383.846C495.714 383.765 495.763 383.676 495.86 383.628C496.119 383.506 496.427 383.628 496.694 383.741L574.813 416.786H574.821ZM521.19 471.841L463.018 530.014L472.975 468.814L472.991 468.733C472.999 468.652 473.015 468.571 473.04 468.498C473.121 468.304 473.331 468.223 473.533 468.142L473.631 468.101C475.811 467.171 477.739 465.737 479.257 463.916C479.451 463.689 479.686 463.471 479.985 463.43C480.063 463.418 480.142 463.418 480.22 463.43L521.182 471.849L521.19 471.841ZM450.705 542.327L444.148 548.884L371.655 444.115C371.629 444.077 371.602 444.039 371.574 444.002C371.461 443.848 371.339 443.694 371.363 443.516C371.363 443.387 371.452 443.273 371.541 443.176L371.622 443.071C371.841 442.747 372.027 442.423 372.23 442.075L372.391 441.792L372.416 441.768C372.529 441.573 372.634 441.387 372.829 441.282C372.999 441.201 373.233 441.233 373.42 441.274L453.732 457.837C453.957 457.872 454.169 457.964 454.348 458.104C454.453 458.209 454.477 458.322 454.501 458.452C455.062 460.571 456.104 462.533 457.548 464.183C458.992 465.833 460.797 467.127 462.823 467.964C463.05 468.077 462.953 468.328 462.848 468.595C462.795 468.712 462.754 468.834 462.726 468.959C461.714 475.112 453.036 528.039 450.705 542.327ZM437.008 556.016C432.175 560.8 429.325 563.334 426.103 564.354C422.927 565.358 419.517 565.358 416.341 564.354C412.568 563.156 409.306 559.901 402.789 553.377L329.989 480.576L349.004 451.085C349.093 450.939 349.182 450.81 349.328 450.705C349.531 450.559 349.822 450.624 350.065 450.705C354.429 452.022 359.116 451.784 363.325 450.033C363.543 449.952 363.762 449.895 363.932 450.049C364.017 450.127 364.093 450.213 364.159 450.308L437.008 556.024V556.016ZM322.97 473.558L306.27 456.857L339.25 442.788C339.334 442.751 339.425 442.732 339.517 442.731C339.792 442.731 339.954 443.006 340.1 443.257C340.431 443.767 340.782 444.264 341.152 444.747L341.257 444.876C341.354 445.014 341.29 445.151 341.192 445.281L322.978 473.558H322.97ZM298.879 449.466L277.75 428.338C274.156 424.743 271.549 422.137 269.736 419.894L333.98 433.219C334.06 433.234 334.141 433.247 334.222 433.259C334.619 433.324 335.056 433.397 335.056 433.769C335.056 434.174 334.579 434.36 334.174 434.514L333.988 434.595L298.879 449.466ZM266.044 409.03C266.118 407.669 266.362 406.323 266.773 405.023C267.971 401.251 271.225 397.997 277.75 391.472L304.788 364.434C317.237 382.501 329.72 400.546 342.237 418.567C342.455 418.858 342.698 419.182 342.447 419.425C341.265 420.728 340.083 422.153 339.25 423.699C339.159 423.898 339.02 424.07 338.845 424.201C338.74 424.266 338.626 424.241 338.505 424.217H338.489L266.044 409.022V409.03ZM312.025 357.197L348.365 320.841C351.789 322.339 364.231 327.592 375.346 332.288C383.765 335.849 391.44 339.088 393.852 340.14C394.095 340.237 394.313 340.334 394.419 340.577C394.483 340.723 394.451 340.909 394.419 341.063C393.843 343.687 393.929 346.413 394.668 348.996C395.407 351.579 396.776 353.938 398.652 355.861C398.895 356.104 398.652 356.452 398.442 356.751L398.329 356.921L361.414 414.098C361.317 414.26 361.228 414.398 361.066 414.503C360.872 414.624 360.597 414.568 360.37 414.511C358.934 414.135 357.458 413.934 355.974 413.912C354.647 413.912 353.206 414.155 351.749 414.422H351.741C351.579 414.446 351.433 414.479 351.303 414.381C351.16 414.264 351.037 414.125 350.939 413.969L312.017 357.197H312.025ZM355.723 313.499L402.789 266.433C409.306 259.916 412.568 256.654 416.341 255.464C419.517 254.459 422.927 254.459 426.103 255.464C429.876 256.654 433.138 259.916 439.655 266.433L449.855 276.633L416.381 328.475C416.298 328.626 416.185 328.758 416.049 328.863C415.847 329.001 415.563 328.944 415.321 328.863C412.681 328.062 409.887 327.917 407.179 328.438C404.47 328.96 401.93 330.134 399.778 331.859C399.559 332.085 399.235 331.956 398.96 331.834C394.589 329.932 360.589 315.563 355.723 313.499V313.499ZM456.962 283.74L487.87 314.648L480.422 360.775V360.896C480.416 361.001 480.394 361.105 480.358 361.204C480.277 361.366 480.115 361.398 479.953 361.447C478.361 361.929 476.861 362.676 475.517 363.657C475.459 363.698 475.405 363.744 475.355 363.794C475.266 363.891 475.177 363.98 475.031 363.997C474.912 364 474.794 363.981 474.683 363.94L427.585 343.929L427.496 343.888C427.196 343.767 426.84 343.621 426.84 343.313C426.563 340.689 425.706 338.159 424.331 335.906C424.104 335.534 423.853 335.145 424.047 334.765L456.962 283.74ZM425.132 353.408L469.283 372.108C469.526 372.221 469.793 372.327 469.899 372.578C469.941 372.729 469.941 372.888 469.899 373.039C469.769 373.687 469.656 374.423 469.656 375.168V376.407C469.656 376.714 469.34 376.844 469.049 376.965L468.96 376.998C461.965 379.985 370.764 418.874 370.627 418.874C370.489 418.874 370.343 418.874 370.206 418.737C369.963 418.494 370.206 418.154 370.424 417.846C370.463 417.793 370.501 417.739 370.538 417.684L406.821 361.503L406.885 361.406C407.096 361.066 407.339 360.686 407.727 360.686L408.091 360.742C408.917 360.856 409.646 360.961 410.382 360.961C415.887 360.961 420.987 358.281 424.063 353.699C424.137 353.577 424.23 353.468 424.339 353.376C424.557 353.214 424.881 353.295 425.132 353.408V353.408ZM374.569 427.763L473.979 385.368C473.979 385.368 474.124 385.368 474.262 385.506C474.804 386.048 475.266 386.412 475.711 386.752L475.93 386.89C476.132 387.003 476.334 387.133 476.351 387.343C476.351 387.424 476.351 387.473 476.334 387.546L467.818 439.857L467.786 440.068C467.729 440.472 467.672 440.934 467.292 440.934C465.021 441.087 462.823 441.792 460.886 442.986C458.949 444.181 457.333 445.83 456.177 447.79L456.137 447.855C456.023 448.041 455.918 448.219 455.732 448.317C455.562 448.398 455.343 448.365 455.165 448.325L375.889 431.972C375.808 431.956 374.658 427.771 374.569 427.763V427.763Z" fill="url(#paint0_radial_1_15)"/>
<defs>
<radialGradient id="paint0_radial_1_15" cx="0" cy="0" r="1" gradientUnits="userSpaceOnUse" gradientTransform="translate(255.634 405.529) rotate(90) scale(310.055 357.97)">
<stop stop-color="#20C6B7"/>
<stop offset="1" stop-color="#4D9ABF"/>
</radialGradient>
</defs>
</svg>
