<svg width="662" height="230" viewBox="0 0 662 230" fill="none" xmlns="http://www.w3.org/2000/svg">
<path d="M0.384001 187V0.375992H31.104V79.992H152.192V0.375992H182.912V187H152.192V104.824H31.104V187H0.384001ZM213.08 229.752V205.944H230.232C238.765 205.944 245.251 204.408 249.688 201.336C254.125 198.264 257.709 193.827 260.44 188.024L265.56 177.016L201.048 51.576H233.048L270.168 129.4L279.384 148.856H281.176L289.88 128.888L324.952 51.576H355.928L285.528 197.496C280.237 208.931 273.325 217.123 264.792 222.072C256.429 227.192 245.677 229.752 232.536 229.752H213.08ZM421.776 189.304C408.293 189.304 396.517 186.488 386.448 180.856C376.379 175.053 368.528 166.947 362.896 156.536C357.264 145.955 354.448 133.581 354.448 119.416C354.448 104.909 357.264 92.4507 362.896 82.04C368.528 71.6293 376.379 63.608 386.448 57.976C396.688 52.344 408.464 49.528 421.776 49.528C435.6 49.528 447.205 52.088 456.592 57.208C465.979 62.1573 472.72 68.728 476.816 76.92H478.096L479.12 51.576H507.28V187H477.584V160.376H476.304C472.037 169.251 464.955 176.333 455.056 181.624C445.328 186.744 434.235 189.304 421.776 189.304ZM429.968 166.264C440.037 166.264 448.571 164.301 455.568 160.376C462.736 156.451 468.197 151.245 471.952 144.76C475.707 138.275 477.584 131.277 477.584 123.768V113.528C477.584 106.189 475.707 99.448 471.952 93.304C468.197 86.9893 462.736 81.9547 455.568 78.2C448.571 74.4453 440.037 72.568 429.968 72.568C416.485 72.568 405.477 76.664 396.944 84.856C388.581 92.8773 384.4 104.397 384.4 119.416C384.4 133.923 388.581 145.357 396.944 153.72C405.307 162.083 416.315 166.264 429.968 166.264ZM593.788 189.56C571.943 189.56 554.961 185.464 542.844 177.272C530.897 169.08 524.668 158.157 524.156 144.504H553.34C553.681 152.696 557.436 159.096 564.604 163.704C571.772 168.312 581.756 170.616 594.556 170.616C606.161 170.616 615.292 168.995 621.948 165.752C628.604 162.509 631.932 157.389 631.932 150.392C631.932 145.272 630.652 141.347 628.092 138.616C625.703 135.885 621.607 133.837 615.804 132.472C610.001 131.107 601.98 129.912 591.74 128.888C577.063 127.352 565.031 125.219 555.644 122.488C546.428 119.757 539.687 115.832 535.42 110.712C531.153 105.592 529.02 98.7653 529.02 90.232C529.02 77.6027 534.737 67.6187 546.172 60.28C557.777 52.7707 573.564 49.016 593.532 49.016C612.988 49.016 628.177 52.856 639.1 60.536C650.193 68.0453 656.337 78.5413 657.532 92.024H629.372C628.519 83.6613 624.849 77.6027 618.364 73.848C611.879 70.0933 603.601 68.216 593.532 68.216C583.121 68.216 574.588 69.752 567.932 72.824C561.276 75.896 557.948 80.9307 557.948 87.928C557.948 94.584 561.02 99.192 567.164 101.752C573.479 104.312 583.633 106.275 597.628 107.64C612.817 109.005 625.02 111.053 634.236 113.784C643.623 116.344 650.449 120.355 654.716 125.816C659.153 131.107 661.372 138.616 661.372 148.344C661.372 160.803 655.825 170.787 644.732 178.296C633.639 185.805 616.657 189.56 593.788 189.56Z" fill="white"/>
</svg>
